wght1000_wdth125.ufo
<glyph name="A" format="2">
	<unicode hex="0041"/>
	<advance width="1350"/>
	<outline>
		<contour>
			<point x="-219.0900878906" y="0" type="line"/>
			<point x="-208.8966064453" y="98.9951171875" type="line"/>
			<point x="8.6645507812" y="115.9951171875" type="line"/>
			<point x="345.7841796875" y="678" type="line"/>
			<point x="896.1245117188" y="1520" type="line"/>
			<point x="1045.0410766602" y="1502" type="line"/>
			<point x="1047.4819946289" y="655" type="line"/>
			<point x="1065.2983398438" y="119.9951171875" type="line"/>
			<point x="1281.1639404297" y="99.9951171875" type="line"/>
			<point x="1271.8415527344" y="0" type="line"/>
			<point x="667.7948608398" y="0" type="line"/>
			<point x="687.1172485352" y="99.9951171875" type="line"/>
			<point x="890.9828491211" y="124.9951171875" type="line"/>
			<point x="886.3364868164" y="648" type="line"/>
			<point x="876.3717041016" y="1208.5037231445" type="line"/>
			<point x="874.4194335938" y="1280.3228149414" type="line"/>
			<point x="846.4194335938" y="1287.3228149414" type="line"/>
			<point x="795.2962646484" y="1200.3128051758" type="line"/>
			<point x="440.6480102539" y="606.2557983398" type="line"/>
			<point x="179.8343505859" y="116.9951171875" type="line"/>
			<point x="390.1343994141" y="98.9951171875" type="line"/>
			<point x="389.9409179688" y="0" type="line"/>
		</contour>
		<contour>
			<point x="269.007019043" y="497.2013549805" type="line"/>
			<point x="353.9340209961" y="619.7377319336" type="line"/>
			<point x="566.0407104492" y="613.7377319336" type="line"/>
			<point x="551.0601196289" y="511.2013549805" type="line"/>
		</contour>
		<contour>
			<point x="568.1735229492" y="613.7377319336" type="line"/>
			<point x="1090.6097412109" y="621.7377319336" type="line"/>
			<point x="1094.7303466797" y="509.2013549805" type="line"/>
			<point x="553.1929321289" y="511.2013549805" type="line"/>
		</contour>
	</outline>
	<anchor name="bottom" x="523" y="0"/>
	<anchor name="ogonek" x="1098" y="0"/>
	<anchor name="top" x="954" y="1500"/>
	<anchor name="tonos" x="613" y="1500"/>
</glyph>
<glyph name="B" format="2">
	<unicode hex="0042"/>
	<advance width="1225"/>
	<outline>
		<contour>
			<point x="-70.573425293" y="0" type="line"/>
			<point x="-53.4243774414" y="99.9951171875" type="line"/>
			<point x="127.7884521484" y="113.9951171875" type="line"/>
			<point x="273.6394042969" y="806" type="line"/>
			<point x="386" y="1362" type="line"/>
			<point x="193" y="1386" type="line"/>
			<point x="206" y="1500" type="line"/>
			<point x="766.5088500977" y="1500" type="line" smooth="yes"/>
			<point x="950.670715332" y="1500"/>
			<point x="1132.4184570312" y="1332"/>
			<point x="1128.0883789062" y="1163" type="qcurve" smooth="yes"/>
			<point x="1123.9839477539" y="1016"/>
			<point x="972.5635986328" y="854"/>
			<point x="815.2166137695" y="828" type="qcurve"/>
			<point x="814.2166137695" y="821" type="line"/>
			<point x="972.4977416992" y="795"/>
			<point x="1126.6244506836" y="575"/>
			<point x="1107.4724121094" y="413" type="qcurve" smooth="yes"/>
			<point x="1084.0582885742" y="226"/>
			<point x="806.7318115234" y="0"/>
			<point x="594.9166259766" y="0" type="qcurve" smooth="yes"/>
		</contour>
		<contour>
			<point x="297.1072387695" y="124.7792358398" type="line"/>
			<point x="330.2438964844" y="96.7358398438" type="line"/>
			<point x="591.6387939453" y="96.7358398438" type="line" smooth="yes"/>
			<point x="685.3464355469" y="96.7358398438"/>
			<point x="864.4419555664" y="260.0673828125"/>
			<point x="887.7040405273" y="409.0673828125" type="qcurve" smooth="yes"/>
			<point x="910.7040405273" y="556.0673828125"/>
			<point x="767.1990966797" y="743.5355834961"/>
			<point x="621.4967041016" y="743.5355834961" type="qcurve" smooth="yes"/>
			<point x="424.9031982422" y="743.5355834961" type="line"/>
			<point x="412.9031982422" y="728.715637207" type="line"/>
		</contour>
		<contour>
			<point x="440.3002319336" y="874.5641479492" type="line"/>
			<point x="445.0269165039" y="850.1975708008" type="line"/>
			<point x="591.8665771484" y="850.1975708008" type="line" smooth="yes"/>
			<point x="724.8386230469" y="850.1975708008"/>
			<point x="916.5017089844" y="990.2927246094"/>
			<point x="930.9291992188" y="1128.2927246094" type="qcurve" smooth="yes"/>
			<point x="944.3566894531" y="1256.2927246094"/>
			<point x="822.8721313477" y="1396.760925293"/>
			<point x="724.0247192383" y="1396.760925293" type="qcurve" smooth="yes"/>
			<point x="578" y="1380" type="line"/>
			<point x="549" y="1362" type="line"/>
		</contour>
	</outline>
	<anchor name="bottom" x="630" y="0"/>
	<anchor name="top" x="630" y="1500"/>
</glyph>
<glyph name="C" format="2">
	<unicode hex="0043"/>
	<advance width="1274"/>
	<outline>
		<contour>
			<point x="99.2403249191" y="786" type="qcurve" smooth="yes"/>
			<point x="167.2032155441" y="1162"/>
			<point x="720.9351859893" y="1544.6727294922"/>
			<point x="1065.5239552902" y="1518.799621582" type="qcurve" smooth="yes"/>
			<point x="1102.5007987822" y="1517.3175048828"/>
			<point x="1292.8244071807" y="1457.0825805664"/>
			<point x="1300.0723319854" y="1439.5199584961" type="qcurve"/>
			<point x="1312.9451347197" y="1426.6713867188" type="line"/>
			<point x="1332.5748586105" y="1408.799621582" type="line"/>
			<point x="1257.285613005" y="1025.6624145508" type="line"/>
			<point x="1161.9456471847" y="1025.6624145508" type="line"/>
			<point x="1168.8611745285" y="1258.7969360352" type="line"/>
			<point x="1176.9786672043" y="1319.3827514648"/>
			<point x="1068.0365285324" y="1386.2199707031"/>
			<point x="1013.3255910324" y="1390.1236572266" type="qcurve" smooth="yes"/>
			<point x="728.0109548019" y="1419.4177856445"/>
			<point x="340.1956471847" y="1096"/>
			<point x="290.2327565597" y="759" type="qcurve" smooth="yes"/>
			<point x="245.0960988449" y="463"/>
			<point x="367.1419120635" y="141.8085327148"/>
			<point x="587.0425468291" y="124.6030883789" type="qcurve" smooth="yes"/>
			<point x="785.8138480986" y="108.2821044922"/>
			<point x="1026.3556813644" y="238.6924438477"/>
			<point x="1105.2841481613" y="337.3822021484" type="qcurve"/>
			<point x="1157.2841481613" y="313.3822021484" type="line"/>
			<point x="1204.5814504074" y="254" type="line"/>
			<point x="1114.2045583175" y="111.9691772461"/>
			<point x="864.1037650908" y="-24.6653442383"/>
			<point x="667.0688771652" y="-22.399597168" type="qcurve" smooth="yes"/>
			<point x="344.2672782744" y="-17.833984375"/>
			<point x="30.4659718918" y="405"/>
		</contour>
	</outline>
	<anchor name="bottom" x="596" y="0"/>
	<anchor name="top" x="906" y="1500"/>
</glyph>
<glyph name="F" format="2">
	<unicode hex="0046"/>
	<advance width="1137"/>
	<outline>
		<contour>
			<point x="-74.4625244141" y="0" type="line"/>
			<point x="-57.3134765625" y="99.9951171875" type="line"/>
			<point x="133.3343505859" y="119.9951171875" type="line"/>
			<point x="279.1853027344" y="806" type="line"/>
			<point x="377.0362548828" y="1364.0048828125" type="line"/>
			<point x="147.3450927734" y="1387.0048828125" type="line"/>
			<point x="155.9291381836" y="1500" type="line"/>
			<point x="1194.3367919922" y="1500" type="line"/>
			<point x="1146.5641479492" y="1145.4281616211" type="line"/>
			<point x="1067.1343383789" y="1145.4281616211" type="line"/>
			<point x="1049.8526000977" y="1377.4008178711" type="line"/>
			<point x="585.0477905273" y="1375.4008178711" type="line"/>
			<point x="535.0477905273" y="1351.4008178711" type="line"/>
			<point x="422.5316162109" y="760" type="line"/>
			<point x="302.6806640625" y="119.9951171875" type="line"/>
			<point x="529.8929443359" y="99.9951171875" type="line"/>
			<point x="510.9177856445" y="0" type="line"/>
		</contour>
		<contour>
			<point x="213.4429321289" y="698.6353149414" type="line"/>
			<point x="232.6100463867" y="779.6509399414" type="line"/>
			<point x="813.8033447266" y="793.6509399414" type="line"/>
			<point x="876.7542724609" y="965.3909301758" type="line"/>
			<point x="933.6418457031" y="965.3909301758" type="line"/>
			<point x="843.9758300781" y="502.0585327148" type="line"/>
			<point x="787.0882568359" y="502.0585327148" type="line"/>
			<point x="790.4995727539" y="682.3619995117" type="line"/>
		</contour>
	</outline>
	<anchor name="bottom" x="578" y="0"/>
	<anchor name="top" x="622" y="1500"/>
</glyph>
<glyph name="H" format="2">
	<unicode hex="0048"/>
	<advance width="1600"/>
	<outline>
		<contour>
			<point x="-67.2733764648" y="0" type="line"/>
			<point x="-50.1243286133" y="99.9951171875" type="line"/>
			<point x="138.6973876953" y="119.9951171875" type="line"/>
			<point x="279.5483398438" y="806" type="line"/>
			<point x="380.3992919922" y="1364.0048828125" type="line"/>
			<point x="161.9692382812" y="1387.0048828125" type="line"/>
			<point x="170.2055053711" y="1500" type="line"/>
			<point x="763.6669311523" y="1500" type="line"/>
			<point x="743.6917724609" y="1387.0048828125" type="line"/>
			<point x="548.3917236328" y="1364.0048828125" type="line"/>
			<point x="434.5407714844" y="790" type="line"/>
			<point x="306.6898193359" y="119.9951171875" type="line"/>
			<point x="511.5982055664" y="99.9951171875" type="line"/>
			<point x="506.1880493164" y="0" type="line"/>
		</contour>
		<contour>
			<point x="346" y="738" type="line"/>
			<point x="367" y="855" type="line"/>
			<point x="779.250793457" y="832.1412353516" type="line"/>
			<point x="1165.6123046875" y="836.1412353516" type="line"/>
			<point x="1150.0850830078" y="721.0083618164" type="line"/>
			<point x="761.0774536133" y="725.0083618164" type="line"/>
		</contour>
		<contour>
			<point x="806.709777832" y="0" type="line"/>
			<point x="823.8588256836" y="99.9951171875" type="line"/>
			<point x="1026.6805419922" y="119.9951171875" type="line"/>
			<point x="1162.5314941406" y="788" type="line"/>
			<point x="1268.3824462891" y="1364.0048828125" type="line"/>
			<point x="1079.9523925781" y="1387.0048828125" type="line"/>
			<point x="1088.188659668" y="1500" type="line"/>
			<point x="1670.0249023438" y="1500" type="line"/>
			<point x="1650.0497436523" y="1387.0048828125" type="line"/>
			<point x="1435.9235839844" y="1364.0048828125" type="line"/>
			<point x="1317.0726318359" y="771" type="line"/>
			<point x="1194.2216796875" y="119.9951171875" type="line"/>
			<point x="1417.9561767578" y="99.9951171875" type="line"/>
			<point x="1412.5460205078" y="0" type="line"/>
		</contour>
	</outline>
	<anchor name="bottom" x="607" y="0"/>
	<anchor name="center" x="820" y="1079"/>
	<anchor name="top" x="950" y="1500"/>
	<anchor name="tonos" x="81" y="1500"/>
	<anchor name="cy_descender" x="1399" y="100"/>
</glyph>
<glyph name="I" format="2">
	<unicode hex="0049"/>
	<advance width="685"/>
	<outline>
		<contour>
			<point x="-68.7633056641" y="0" type="line"/>
			<point x="-51.7881469727" y="97.9951171875" type="line"/>
			<point x="130.250793457" y="112.9951171875" type="line"/>
			<point x="287.2756347656" y="858" type="line"/>
			<point x="372.9765625" y="1363.0048828125" type="line"/>
			<point x="161.1553955078" y="1386.0048828125" type="line"/>
			<point x="168.7155761719" y="1500" type="line"/>
			<point x="748.4352416992" y="1500" type="line"/>
			<point x="729.1361694336" y="1386.0048828125" type="line"/>
			<point x="542.0972290039" y="1363.0048828125" type="line"/>
			<point x="434.3963012695" y="826" type="line"/>
			<point x="299.3714599609" y="111.9951171875" type="line"/>
			<point x="496.1926269531" y="97.9951171875" type="line"/>
			<point x="499.2174682617" y="0" type="line"/>
		</contour>
	</outline>
	<anchor name="bottom" x="220" y="0"/>
	<anchor name="ogonek" x="356" y="0"/>
	<anchor name="top" x="503" y="1500"/>
	<anchor name="tonos" x="81" y="1500"/>
	<anchor name="yu_dash" x="365" y="795"/>
	<anchor name="liga" x="712" y="0"/>
</glyph>
<glyph name="J" format="2">
	<unicode hex="004A"/>
	<advance width="709"/>
	<outline>
		<contour>
			<point x="-140.73046875" y="-215" type="qcurve"/>
			<point x="-102.1967773438" y="-87.6547241211" type="line"/>
			<point x="-83.2451171875" y="-94.6547241211"/>
			<point x="-20.8364257812" y="-107.6547241211"/>
			<point x="25.6318359375" y="-107.6547241211" type="qcurve" smooth="yes"/>
			<point x="70.9754638672" y="-107.6547241211"/>
			<point x="137.6044311523" y="-17.7913818359"/>
			<point x="166.4677734375" y="132.3452758789" type="qcurve" smooth="yes"/>
			<point x="286.1840820312" y="754" type="line"/>
			<point x="393.8850097656" y="1364.0048828125" type="line"/>
			<point x="189.1729736328" y="1387.0048828125" type="line"/>
			<point x="196.2329101562" y="1500" type="line"/>
			<point x="780.5614624023" y="1500" type="line"/>
			<point x="756.5015258789" y="1387.0048828125" type="line"/>
			<point x="561.1557006836" y="1364.0048828125" type="line"/>
			<point x="440.3047485352" y="754" type="line"/>
			<point x="346.0547485352" y="224" type="line" smooth="yes"/>
			<point x="302.8047485352" y="-18"/>
			<point x="114.7420654297" y="-260"/>
			<point x="0.2443847656" y="-260" type="qcurve" smooth="yes"/>
			<point x="-44.251159668" y="-260"/>
			<point x="-156.9462890625" y="-227"/>
		</contour>
	</outline>
	<anchor name="bottom" x="376" y="-208"/>
	<anchor name="top" x="533" y="1500"/>
	<anchor name="_liga" x="0" y="0"/>
</glyph>
<glyph name="K" format="2">
	<unicode hex="004B"/>
	<advance width="1230"/>
	<outline>
		<contour>
			<point x="-66.9255981445" y="0" type="line"/>
			<point x="-41.5154418945" y="99.9951171875" type="line"/>
			<point x="139.6973876953" y="114.9951171875" type="line"/>
			<point x="296.5483398438" y="858" type="line"/>
			<point x="382.2492675781" y="1364.0048828125" type="line"/>
			<point x="162.9931030273" y="1386.0048828125" type="line"/>
			<point x="170.5532836914" y="1500" type="line"/>
			<point x="779.0772094727" y="1500" type="line"/>
			<point x="751.5170288086" y="1386.0048828125" type="line"/>
			<point x="554.5647583008" y="1364.0048828125" type="line"/>
			<point x="449.8638305664" y="826" type="line"/>
			<point x="311" y="124" type="line"/>
			<point x="517.8779296875" y="99.9951171875" type="line"/>
			<point x="505.4677734375" y="0" type="line"/>
		</contour>
		<contour>
			<point x="303" y="540" type="line"/>
			<point x="331" y="693" type="line"/>
			<point x="1027.114440918" y="1378.0048828125" type="line"/>
			<point x="841.8127441406" y="1387.0048828125" type="line"/>
			<point x="855.3729248047" y="1500" type="line"/>
			<point x="1496.9465332031" y="1500" type="line"/>
			<point x="1483.3863525391" y="1387.0048828125" type="line"/>
			<point x="1288.607421875" y="1378.0048828125" type="line"/>
		</contour>
		<contour>
			<point x="589" y="874" type="line"/>
			<point x="717" y="993" type="line"/>
			<point x="1079.8514404297" y="114.9951171875" type="line"/>
			<point x="1295.4998168945" y="99.9951171875" type="line"/>
			<point x="1290.0896606445" y="0" type="line"/>
			<point x="645.4768676758" y="0" type="line"/>
			<point x="654.8870239258" y="99.9951171875" type="line"/>
			<point x="875" y="124" type="line"/>
		</contour>
	</outline>
	<anchor name="bottom" x="607" y="0"/>
	<anchor name="top" x="896" y="1500"/>
	<anchor name="kai_tail" x="1201" y="100"/>
</glyph>
<glyph name="M" format="2">
	<unicode hex="004D"/>
	<advance width="1779"/>
	<outline>
		<contour>
			<point x="-92.7669677734" y="0" type="line"/>
			<point x="-69.3568115234" y="99.9951171875" type="line"/>
			<point x="132.3343505859" y="139.9951171875" type="line"/>
			<point x="263.5948486328" y="754" type="line"/>
			<point x="381.8862304688" y="1351.0048828125" type="line"/>
			<point x="154.7167358398" y="1387.0048828125" type="line"/>
			<point x="168.2769165039" y="1500" type="line"/>
			<point x="605.1657104492" y="1500" type="line"/>
			<point x="701.9205932617" y="825.5528564453" type="line"/>
			<point x="759.280090332" y="504.8461303711" type="line"/>
			<point x="775.2700805664" y="341.1602172852" type="line"/>
			<point x="786.2700805664" y="341.1602172852" type="line"/>
			<point x="870.4887084961" y="504.8461303711" type="line"/>
			<point x="1126.6315307617" y="957.6403808594" type="line"/>
			<point x="1444.2969360352" y="1500" type="line"/>
			<point x="1860.7349243164" y="1500" type="line"/>
			<point x="1840.7836303711" y="1386.0048828125" type="line"/>
			<point x="1629.6141357422" y="1354.0048828125" type="line"/>
			<point x="1509.9132080078" y="771" type="line"/>
			<point x="1387.0622558594" y="124.9951171875" type="line"/>
			<point x="1608.9706420898" y="99.9951171875" type="line"/>
			<point x="1601.5604858398" y="0" type="line"/>
			<point x="972.7536010742" y="0" type="line"/>
			<point x="1000.1637573242" y="99.9951171875" type="line"/>
			<point x="1222.9415893555" y="124.9951171875" type="line"/>
			<point x="1359.7925415039" y="785.2256469727" type="line"/>
			<point x="1425.973449707" y="1135.2256469727" type="line"/>
			<point x="1461.7925415039" y="1288" type="line"/>
			<point x="1450.7925415039" y="1291" type="line"/>
			<point x="1370.3930053711" y="1131.0854492188" type="line"/>
			<point x="1160.1549682617" y="786.6682128906" type="line"/>
			<point x="709.3212890625" y="0" type="line"/>
			<point x="690.5598754883" y="0" type="line"/>
			<point x="581.3505859375" y="755.8968505859" type="line"/>
			<point x="522.1969604492" y="1132.7236328125" type="line"/>
			<point x="508.7974243164" y="1284" type="line"/>
			<point x="498.7974243164" y="1281" type="line"/>
			<point x="474.4356079102" y="1136" type="line"/>
			<point x="391.7974243164" y="754" type="line"/>
			<point x="270.946472168" y="139.9951171875" type="line"/>
			<point x="481.5504150391" y="99.9951171875" type="line"/>
			<point x="469.4013671875" y="0" type="line"/>
		</contour>
	</outline>
	<anchor name="bottom" x="768" y="0"/>
	<anchor name="top" x="1048" y="1500"/>
</glyph>
<glyph name="N" format="2">
	<unicode hex="004E"/>
	<advance width="1568"/>
	<outline>
		<contour>
			<point x="-101.2886352539" y="0" type="line"/>
			<point x="-78.8784790039" y="99.9951171875" type="line"/>
			<point x="131.3343505859" y="129.9951171875" type="line"/>
			<point x="263.1853027344" y="754" type="line"/>
			<point x="382.0362548828" y="1361.0048828125" type="line"/>
			<point x="155.5189819336" y="1388.0048828125" type="line"/>
			<point x="166.9291381836" y="1500" type="line"/>
			<point x="657.30859375" y="1500" type="line"/>
			<point x="924.5294799805" y="808.8638305664" type="line"/>
			<point x="958" y="418" type="line"/>
			<point x="990" y="317" type="line"/>
			<point x="1001" y="319" type="line"/>
			<point x="1024" y="440" type="line"/>
			<point x="1181.3515014648" y="803" type="line"/>
			<point x="1289.2024536133" y="1353.0048828125" type="line"/>
			<point x="1045.5551757812" y="1387.0048828125" type="line"/>
			<point x="1062.4869995117" y="1500" type="line"/>
			<point x="1664.7095947266" y="1500" type="line"/>
			<point x="1648.7777709961" y="1387.0048828125" type="line"/>
			<point x="1428.7388305664" y="1353.0048828125" type="line"/>
			<point x="1315.887878418" y="779" type="line"/>
			<point x="1162.887878418" y="0" type="line"/>
			<point x="1036.5341186523" y="0" type="line"/>
			<point x="745.5201416016" y="736.3577880859" type="line"/>
			<point x="507" y="1220" type="line"/>
			<point x="471" y="1324" type="line"/>
			<point x="461" y="1321" type="line"/>
			<point x="442" y="1199" type="line"/>
			<point x="388.7216796875" y="701" type="line"/>
			<point x="267.8707275391" y="129.9951171875" type="line"/>
			<point x="511.9530029297" y="99.9951171875" type="line"/>
			<point x="497.5428466797" y="0" type="line"/>
		</contour>
	</outline>
	<anchor name="bottom" x="640" y="0"/>
	<anchor name="top" x="884" y="1500"/>
	<anchor name="engtail" x="1041" y="0"/>
	<anchor name="liga" x="1432" y="0"/>
</glyph>
<glyph name="O" format="2">
	<unicode hex="004F"/>
	<advance width="1574"/>
	<outline>
		<contour>
			<point x="104.7563682978" y="882" type="qcurve" smooth="yes"/>
			<point x="178.6281334346" y="1243"/>
			<point x="624.7761436885" y="1557.6541748047"/>
			<point x="910.6171471064" y="1519.428527832" type="qcurve" smooth="yes"/>
			<point x="1191.1211754267" y="1481.391418457"/>
			<point x="1519.778707165" y="1021"/>
			<point x="1451.1786705439" y="651" type="qcurve" smooth="yes"/>
			<point x="1383.7300621455" y="281"/>
			<point x="919.9987389033" y="-56.2912597656"/>
			<point x="631.149800915" y="-19.028503418" type="qcurve" smooth="yes"/>
			<point x="297.9164635127" y="23.934387207"/>
			<point x="33.8846031611" y="521"/>
		</contour>
		<contour>
			<point x="287.8402790097" y="840" type="qcurve" smooth="yes"/>
			<point x="225.3789142636" y="527.6976318359"/>
			<point x="380.4569171933" y="126.794128418"/>
			<point x="621.6774372129" y="105.794128418" type="qcurve" smooth="yes"/>
			<point x="877.1553424863" y="82.794128418"/>
			<point x="1204.8203205136" y="410.6812744141"/>
			<point x="1260.8930133847" y="720" type="qcurve" smooth="yes"/>
			<point x="1320.4710773496" y="1061.8955078125"/>
			<point x="1111.7921833066" y="1389.2956542969"/>
			<point x="893.5641559629" y="1400.158996582" type="qcurve" smooth="yes"/>
			<point x="665.5696491269" y="1414.0223388672"/>
			<point x="347.8110431699" y="1147.9968261719"/>
		</contour>
	</outline>
	<anchor name="bottom" x="612" y="0"/>
	<anchor name="center" x="765" y="756"/>
	<anchor name="ogonek" x="844" y="0"/>
	<anchor name="top" x="906" y="1500"/>
	<anchor name="topright" x="1044" y="1500"/>
	<anchor name="tonos" x="230" y="1500"/>
	<anchor name="_yu_dash" x="174" y="795"/>
</glyph>
<glyph name="P" format="2">
	<unicode hex="0050"/>
	<advance width="1202"/>
	<outline>
		<contour>
			<point x="-81.8173828125" y="0" type="line"/>
			<point x="-55.9571533203" y="99.9951171875" type="line"/>
			<point x="124.4295654297" y="112.9951171875" type="line"/>
			<point x="275.8304443359" y="836" type="line"/>
			<point x="368.0812988281" y="1364.0048828125" type="line"/>
			<point x="148.3901367188" y="1387.0048828125" type="line"/>
			<point x="157.7481689453" y="1500" type="line"/>
			<point x="910.9996337891" y="1500" type="line" smooth="yes"/>
			<point x="989.7029418945" y="1500"/>
			<point x="1207.6770019531" y="1249"/>
			<point x="1182.6405639648" y="1021" type="qcurve" smooth="yes"/>
			<point x="1158.6041259766" y="799"/>
			<point x="945.3727416992" y="586.357421875"/>
			<point x="726.9851074219" y="586.357421875" type="qcurve" smooth="yes"/>
			<point x="617.6822509766" y="586.357421875"/>
			<point x="362.200378418" y="600.7673950195"/>
			<point x="320.8295898438" y="602.4940795898" type="qcurve"/>
			<point x="340.1767578125" y="719" type="line"/>
			<point x="369.9554443359" y="716"/>
			<point x="533.4493408203" y="707"/>
			<point x="572.9735107422" y="707" type="qcurve" smooth="yes"/>
			<point x="750.6275634766" y="707"/>
			<point x="931.9447021484" y="873.6851806641"/>
			<point x="954.9447021484" y="1044.6851806641" type="qcurve" smooth="yes"/>
			<point x="974.9447021484" y="1193.6851806641"/>
			<point x="834.9749145508" y="1385.8671264648"/>
			<point x="675.2166137695" y="1385.8671264648" type="qcurve" smooth="yes"/>
			<point x="559.7861938477" y="1385.8671264648" type="line"/>
			<point x="533.3762207031" y="1362.3638916016" type="line"/>
			<point x="417.1767578125" y="764" type="line"/>
			<point x="295.7758789062" y="119.9951171875" type="line"/>
			<point x="533.2492675781" y="99.9951171875" type="line"/>
			<point x="515.3890380859" y="0" type="line"/>
		</contour>
	</outline>
	<anchor name="bottom" x="634" y="0"/>
	<anchor name="top" x="634" y="1500"/>
</glyph>
<glyph name="Q" format="2">
	<unicode hex="0051"/>
	<advance width="1570"/>
	<outline>
		<contour>
			<point x="99.960182222" y="883" type="qcurve" smooth="yes"/>
			<point x="173.8319473588" y="1244"/>
			<point x="716.3619384766" y="1541.7638549805"/>
			<point x="905.9322891556" y="1519.799621582" type="qcurve" smooth="yes"/>
			<point x="1239.3432006836" y="1481.762512207"/>
			<point x="1515.7939834916" y="1025"/>
			<point x="1446.3824844681" y="651" type="qcurve" smooth="yes"/>
			<point x="1377.4104003906" y="274"/>
			<point x="914.1504288041" y="-25.0735473633"/>
			<point x="621.907814058" y="12.0006713867" type="qcurve" smooth="yes"/>
			<point x="269.2079239213" y="56.3237304688"/>
			<point x="29.0884170853" y="522"/>
		</contour>
		<contour>
			<point x="283.2399063431" y="840" type="qcurve" smooth="yes"/>
			<point x="220.6800308549" y="527.6976318359"/>
			<point x="366.0637207031" y="154.8233032227"/>
			<point x="616.3165283203" y="125.8233032227" type="qcurve" smooth="yes"/>
			<point x="872.7944335938" y="96.8233032227"/>
			<point x="1202.2813492142" y="410.7490844727"/>
			<point x="1256.2926407181" y="720" type="qcurve" smooth="yes"/>
			<point x="1311.8093033158" y="1052.7598876953"/>
			<point x="1122.303138765" y="1379.6667480469"/>
			<point x="900.0751114213" y="1400.530090332" type="qcurve" smooth="yes"/>
			<point x="656.0806045853" y="1426.3934326172"/>
			<point x="346.0835342728" y="1157.9968261719"/>
		</contour>
		<contour>
			<point x="412.8281860352" y="-28.2474975586" type="qcurve"/>
			<point x="416.3201293945" y="-11.7955932617" type="line"/>
			<point x="1014.8137207031" y="-188.7346801758" type="line" smooth="yes"/>
			<point x="1115.3253173828" y="-237.0504150391"/>
			<point x="1278.4406738281" y="-174.5955200195"/>
			<point x="1323.4406738281" y="-124.3698730469" type="qcurve"/>
			<point x="1432.2150268555" y="-199.5955200195" type="line"/>
			<point x="1450.1990356445" y="-145.5966796875"/>
			<point x="1183.5054931641" y="-380.6840820312"/>
			<point x="1014.0233764648" y="-344.5200805664" type="qcurve"/>
			<point x="344.3867797852" y="-158.1968994141" type="line"/>
			<point x="284.3559570312" y="-139.0020751953"/>
			<point x="161.6895141602" y="-159.2416381836"/>
			<point x="91.6586914062" y="-195.2724609375" type="qcurve"/>
			<point x="50.1149291992" y="-117.7952880859" type="line"/>
			<point x="34.4798583984" y="-111.5228271484"/>
			<point x="320.3460693359" y="-3.0526733398"/>
		</contour>
		<contour>
			<point x="320.8624267578" y="-11.1124267578" type="line"/>
			<point x="383.9711303711" y="56.8937988281"/>
			<point x="539.5223388672" y="224.4450073242"/>
			<point x="675.5223388672" y="354.4450073242" type="qcurve" smooth="yes"/>
			<point x="684.5223388672" y="362.4450073242"/>
			<point x="702.5223388672" y="381.4450073242"/>
			<point x="713.5223388672" y="387.4450073242" type="qcurve"/>
			<point x="745.5223388672" y="377.4450073242"/>
			<point x="819.0366210938" y="342.1107788086"/>
			<point x="834.0366210938" y="329.1107788086" type="qcurve"/>
			<point x="822.0366210938" y="316.1107788086"/>
			<point x="803.0366210938" y="300.1107788086"/>
			<point x="791.0366210938" y="290.1107788086" type="qcurve" smooth="yes"/>
			<point x="654.2622680664" y="168.3364257812"/>
			<point x="529.7587280273" y="44.2862548828"/>
			<point x="459.8734741211" y="-25.9498901367" type="qcurve"/>
		</contour>
	</outline>
	<anchor name="bottom" x="832" y="0"/>
	<anchor name="top" x="832" y="1500"/>
</glyph>
<glyph name="R" format="2">
	<unicode hex="0052"/>
	<advance width="1259"/>
	<outline>
		<contour>
			<point x="-76.0275268555" y="0" type="line"/>
			<point x="-58.8784790039" y="99.9951171875" type="line"/>
			<point x="122.3343505859" y="113.9951171875" type="line"/>
			<point x="273.1853027344" y="836" type="line"/>
			<point x="356.8862304688" y="1364.0048828125" type="line"/>
			<point x="138.6953125" y="1387.0048828125" type="line"/>
			<point x="145.9291381836" y="1500" type="line"/>
			<point x="731.9959106445" y="1500" type="line" smooth="yes"/>
			<point x="958.8433227539" y="1500"/>
			<point x="1152.0123291016" y="1276.8892211914"/>
			<point x="1146.9059448242" y="1103.4986572266" type="qcurve" smooth="yes"/>
			<point x="1140.6741333008" y="910.5180664062"/>
			<point x="882.0673217773" y="671.9973144531"/>
			<point x="874.7947387695" y="671.9973144531" type="qcurve" smooth="yes"/>
			<point x="801.084777832" y="671.9973144531"/>
			<point x="543.9620361328" y="670.9973144531"/>
			<point x="487.9212646484" y="675.9973144531" type="qcurve"/>
			<point x="497.8584594727" y="795" type="line"/>
			<point x="456.3059692383" y="795" type="line"/>
			<point x="595.9856567383" y="795" type="line" smooth="yes"/>
			<point x="790.8829345703" y="795"/>
			<point x="985.4802856445" y="968.6159057617"/>
			<point x="990.5189208984" y="1126.4986572266" type="qcurve" smooth="yes"/>
			<point x="993.1475830078" y="1249.8781738281"/>
			<point x="873.4683837891" y="1382.9973144531"/>
			<point x="721.9034423828" y="1382.9973144531" type="qcurve" smooth="yes"/>
			<point x="553.3687744141" y="1382.9973144531" type="line"/>
			<point x="519.2321166992" y="1364.9973144531" type="line"/>
			<point x="408.3059692383" y="734" type="line"/>
			<point x="293.6050415039" y="115.9951171875" type="line"/>
			<point x="490.1895141602" y="99.9951171875" type="line"/>
			<point x="481.0404663086" y="0" type="line"/>
		</contour>
		<contour>
			<point x="625.3102416992" y="695.8212890625" type="line"/>
			<point x="815.6713867188" y="739.8829345703" type="line"/>
			<point x="828.5088500977" y="713.1381225586" type="line" smooth="yes"/>
			<point x="886.6904907227" y="512.928527832"/>
			<point x="1004.0478515625" y="128.0194091797"/>
			<point x="1191.5751342773" y="113.5576782227" type="qcurve"/>
			<point x="1164.7540283203" y="0" type="line"/>
			<point x="1201.3452758789" y="0" type="line" smooth="yes"/>
			<point x="921.9147338867" y="0"/>
			<point x="689.424621582" y="410.6307983398"/>
			<point x="638.5191040039" y="685.8607177734" type="qcurve" smooth="yes"/>
		</contour>
	</outline>
	<anchor name="bottom" x="573" y="0"/>
	<anchor name="top" x="670" y="1500"/>
</glyph>
<glyph name="S" format="2">
	<unicode hex="0053"/>
	<advance width="1085"/>
	<outline>
		<contour>
			<point x="-28.5679931641" y="9.7531738281" type="line"/>
			<point x="46.5270996094" y="431.210144043" type="line"/>
			<point x="135.1026000977" y="431.210144043" type="line"/>
			<point x="139.1026000977" y="303.1393432617" type="line" smooth="yes"/>
			<point x="143.1026000977" y="213.1393432617"/>
			<point x="265.2440185547" y="104.1393432617"/>
			<point x="429.5441894531" y="104.1393432617" type="qcurve" smooth="yes"/>
			<point x="580.7814941406" y="104.1393432617"/>
			<point x="791.5156860352" y="239.1827392578"/>
			<point x="795.5156860352" y="373.31640625" type="qcurve" smooth="yes"/>
			<point x="798.5156860352" y="514.3988037109"/>
			<point x="494.1877441406" y="703.1338500977"/>
			<point x="389.6979370117" y="782.7998046875" type="qcurve" smooth="yes"/>
			<point x="331.5184326172" y="845.4507446289"/>
			<point x="171.572265625" y="1077.3120117188"/>
			<point x="192.572265625" y="1253.3428344727" type="qcurve" smooth="yes"/>
			<point x="212.572265625" y="1369.7484741211"/>
			<point x="468.1743164062" y="1534"/>
			<point x="695.5772094727" y="1534" type="qcurve" smooth="yes"/>
			<point x="802.8074951172" y="1534"/>
			<point x="983.0287475586" y="1452.2872924805"/>
			<point x="969.6380615234" y="1435" type="qcurve"/>
			<point x="1035.6041259766" y="1530.078918457" type="line"/>
			<point x="1101.0685424805" y="1511.2397460938" type="line"/>
			<point x="1036.063659668" y="1086.8914794922" type="line"/>
			<point x="940.237487793" y="1086.8914794922" type="line"/>
			<point x="931.237487793" y="1224.3638916016" type="line"/>
			<point x="927.237487793" y="1285.3638916016"/>
			<point x="823.1862792969" y="1412.3638916016"/>
			<point x="679.0689086914" y="1412.3638916016" type="qcurve" smooth="yes"/>
			<point x="568.4869384766" y="1412.3638916016"/>
			<point x="403.9775390625" y="1326.3499145508"/>
			<point x="394.9775390625" y="1214.212097168" type="qcurve" smooth="yes"/>
			<point x="385.9775390625" y="1080.908203125"/>
			<point x="599.5687255859" y="950.5335083008"/>
			<point x="690.3434448242" y="864.9243774414" type="qcurve" smooth="yes"/>
			<point x="846.7996826172" y="748.3061523438"/>
			<point x="1002.5018920898" y="526.7237548828"/>
			<point x="971.7275390625" y="338.985168457" type="qcurve" smooth="yes"/>
			<point x="942.9531860352" y="168.5696411133"/>
			<point x="688.5579223633" y="-16"/>
			<point x="443.4968261719" y="-16" type="qcurve" smooth="yes"/>
			<point x="289.1873779297" y="-16"/>
			<point x="136.5648803711" y="31.4727172852"/>
			<point x="107.1887207031" y="72.7600097656" type="qcurve"/>
			<point x="41.2670898438" y="-8.7375488281" type="line"/>
		</contour>
	</outline>
	<anchor name="bottom" x="399" y="0"/>
	<anchor name="top" x="679" y="1500"/>
</glyph>
<glyph name="T" format="2">
	<unicode hex="0054"/>
	<advance width="1198"/>
	<outline>
		<contour>
			<point x="64.9373168945" y="1091.3547363281" type="line"/>
			<point x="145.8227539062" y="1500" type="line"/>
			<point x="1323.9611816406" y="1500" type="line"/>
			<point x="1243.0757446289" y="1091.3547363281" type="line"/>
			<point x="1142.075378418" y="1091.3547363281" type="line"/>
			<point x="1169.4769897461" y="1375.2641601562" type="line"/>
			<point x="811.4989624023" y="1375.2641601562" type="line"/>
			<point x="797.4989624023" y="1355.2641601562" type="line"/>
			<point x="676.9827880859" y="754" type="line"/>
			<point x="561.1318359375" y="114.9951171875" type="line"/>
			<point x="779.3880004883" y="99.9951171875" type="line"/>
			<point x="781.1517333984" y="0" type="line"/>
			<point x="158.5434570312" y="0" type="line"/>
			<point x="174.7797241211" y="99.9951171875" type="line"/>
			<point x="392.6881103516" y="114.9951171875" type="line"/>
			<point x="517.5390625" y="754" type="line"/>
			<point x="632.0552368164" y="1355.2641601562" type="line"/>
			<point x="628.0552368164" y="1375.2641601562" type="line"/>
			<point x="247.3392944336" y="1375.2641601562" type="line"/>
			<point x="155.9376831055" y="1091.3547363281" type="line"/>
		</contour>
	</outline>
	<anchor name="bottom" x="451" y="0"/>
	<anchor name="center" x="584" y="750"/>
	<anchor name="top" x="732" y="1500"/>
	<anchor name="cy_descender" x="755" y="100"/>
</glyph>
<glyph name="U" format="2">
	<unicode hex="0055"/>
	<advance width="1508"/>
	<outline>
		<contour>
			<point x="92.2735595703" y="1387.0048828125" type="line"/>
			<point x="102.0076293945" y="1500" type="line"/>
			<point x="738.765625" y="1500" type="line"/>
			<point x="717.0315551758" y="1387.0048828125" type="line"/>
			<point x="488.4703979492" y="1353.0048828125" type="line"/>
			<point x="387.7694702148" y="794" type="line" smooth="yes"/>
			<point x="367.5529174805" y="682.030456543"/>
			<point x="341.3530273438" y="435.6575317383"/>
			<point x="341.3530273438" y="351.78125" type="qcurve" smooth="yes"/>
			<point x="341.3530273438" y="215.9084472656"/>
			<point x="496.2127685547" y="79.9750366211"/>
			<point x="638.2550048828" y="79.9750366211" type="qcurve" smooth="yes"/>
			<point x="853.7762451172" y="79.9750366211"/>
			<point x="1029.0916748047" y="268.5195922852"/>
			<point x="1072.9804077148" y="480.4145507812" type="qcurve" smooth="yes"/>
			<point x="1137.6701660156" y="794" type="line"/>
			<point x="1249.37109375" y="1353.0048828125" type="line"/>
			<point x="1005.1149291992" y="1387.0048828125" type="line"/>
			<point x="1024.8489990234" y="1500" type="line"/>
			<point x="1635.067199707" y="1500" type="line"/>
			<point x="1616.3331298828" y="1387.0048828125" type="line"/>
			<point x="1389.0330810547" y="1353.0048828125" type="line"/>
			<point x="1278.3321533203" y="794" type="line"/>
			<point x="1216.3321533203" y="478" type="line" smooth="yes"/>
			<point x="1168.1065063477" y="237.5073852539"/>
			<point x="895.1167602539" y="-33.4002685547"/>
			<point x="642.845703125" y="-33.4002685547" type="qcurve" smooth="yes"/>
			<point x="416.4395141602" y="-33.4002685547"/>
			<point x="166.0026855469" y="196"/>
			<point x="167.0026855469" y="418" type="qcurve" smooth="yes"/>
			<point x="167.0026855469" y="521"/>
			<point x="199.0026855469" y="705"/>
			<point x="215.0026855469" y="794" type="qcurve" smooth="yes"/>
			<point x="321.7036132812" y="1353.0048828125" type="line"/>
		</contour>
	</outline>
	<anchor name="bottom" x="588" y="0"/>
	<anchor name="ogonek" x="810" y="0"/>
	<anchor name="top" x="908" y="1500"/>
	<anchor name="topright" x="1561" y="1500"/>
</glyph>
<glyph name="V" format="2">
	<unicode hex="0056"/>
	<advance width="1208"/>
	<outline>
		<contour>
			<point x="1.9777832031" y="1385.9547119141" type="line"/>
			<point x="22.0791015625" y="1500" type="line"/>
			<point x="635.4284057617" y="1500" type="line"/>
			<point x="615.7771606445" y="1388.0550537109" type="line"/>
			<point x="367.999206543" y="1350.0048828125" type="line"/>
			<point x="393.1903686523" y="745.564453125" type="line"/>
			<point x="438" y="390" type="line"/>
			<point x="442" y="261" type="line"/>
			<point x="460" y="261" type="line"/>
			<point x="527" y="390" type="line"/>
			<point x="761.0743408203" y="827.3986206055" type="line"/>
			<point x="1034.7573242188" y="1343.0048828125" type="line"/>
			<point x="790.5639038086" y="1387.9050292969" type="line"/>
			<point x="808.8240356445" y="1500" type="line"/>
			<point x="1425.5086669922" y="1500" type="line"/>
			<point x="1406.7984619141" y="1385.8046875" type="line"/>
			<point x="1209.358581543" y="1349.0048828125" type="line"/>
			<point x="886.7451171875" y="792.5826416016" type="line"/>
			<point x="396.5155639648" y="0" type="line"/>
			<point x="286.7768554688" y="0" type="line"/>
			<point x="246.061706543" y="753.6759033203" type="line"/>
			<point x="208.8643798828" y="1348.0048828125" type="line"/>
		</contour>
	</outline>
	<anchor name="bottom" x="373" y="0"/>
	<anchor name="top" x="743" y="1500"/>
</glyph>
<glyph name="W" format="2">
	<unicode hex="0057"/>
	<advance width="1903"/>
	<outline>
		<contour>
			<point x="3.8171386719" y="1387.0048828125" type="line"/>
			<point x="21.2901000977" y="1500" type="line"/>
			<point x="638.6376953125" y="1500" type="line"/>
			<point x="621.1647338867" y="1387.0048828125" type="line"/>
			<point x="401.2119140625" y="1349.0048828125" type="line"/>
			<point x="410.4940795898" y="838.7236328125" type="line"/>
			<point x="410" y="400" type="line"/>
			<point x="410" y="271" type="line"/>
			<point x="427" y="271" type="line"/>
			<point x="497" y="400" type="line"/>
			<point x="705.623840332" y="717.3538818359" type="line"/>
			<point x="913" y="1121" type="line"/>
			<point x="934.2233276367" y="1345.0048828125" type="line"/>
			<point x="729.8355102539" y="1382.0048828125" type="line"/>
			<point x="749.1345825195" y="1500" type="line"/>
			<point x="1331.2950439453" y="1500" type="line"/>
			<point x="1312.34375" y="1390.0048828125" type="line"/>
			<point x="1087.0864868164" y="1345.0048828125" type="line"/>
			<point x="1098.6209106445" y="876.9390869141" type="line"/>
			<point x="1094" y="400" type="line"/>
			<point x="1094" y="271" type="line"/>
			<point x="1111" y="271" type="line"/>
			<point x="1177" y="400" type="line"/>
			<point x="1449.387878418" y="804.4056396484" type="line"/>
			<point x="1708.8692016602" y="1343.0048828125" type="line"/>
			<point x="1505.9608154297" y="1387.0048828125" type="line"/>
			<point x="1524.5209960938" y="1500" type="line"/>
			<point x="2133.7535400391" y="1500" type="line"/>
			<point x="1972" y="1385" type="line"/>
			<point x="1888.2405395508" y="1349.0048828125" type="line"/>
			<point x="1544.8545532227" y="694.6213378906" type="line"/>
			<point x="1144.1146240234" y="0" type="line"/>
			<point x="959.1878051758" y="0" type="line"/>
			<point x="923" y="805" type="line"/>
			<point x="921" y="934" type="line"/>
			<point x="911" y="934" type="line"/>
			<point x="844" y="805" type="line"/>
			<point x="473.8754272461" y="0" type="line"/>
			<point x="295.8540039062" y="0" type="line"/>
			<point x="262.0454101562" y="732.7236328125" type="line"/>
			<point x="213.6827392578" y="1349.0048828125" type="line"/>
		</contour>
	</outline>
	<anchor name="bottom" x="691" y="0"/>
	<anchor name="top" x="981" y="1500"/>
</glyph>
<glyph name="X" format="2">
	<unicode hex="0058"/>
	<advance width="1283"/>
	<outline>
		<contour>
			<point x="-159.9508056641" y="0" type="line"/>
			<point x="-145.5406494141" y="99.9951171875" type="line"/>
			<point x="64.23828125" y="128.9951171875" type="line"/>
			<point x="608.2926635742" y="799.5062866211" type="line"/>
			<point x="395.7993164062" y="1350.0048828125" type="line"/>
			<point x="174.3681640625" y="1387.0048828125" type="line"/>
			<point x="187.9283447266" y="1500" type="line"/>
			<point x="829.9691772461" y="1500" type="line"/>
			<point x="816.408996582" y="1386.0048828125" type="line"/>
			<point x="579.4995117188" y="1352.0048828125" type="line"/>
			<point x="693.5764160156" y="1000.6205444336" type="line"/>
			<point x="724.2368164062" y="899.9276733398" type="line"/>
			<point x="734.2368164062" y="899.9276733398" type="line"/>
			<point x="813.7132568359" y="1013.9346313477" type="line"/>
			<point x="1050.7446289062" y="1346.0048828125" type="line"/>
			<point x="873.0962524414" y="1386.0048828125" type="line"/>
			<point x="886.6564331055" y="1500" type="line"/>
			<point x="1485.34375" y="1500" type="line"/>
			<point x="1470.7835693359" y="1386.0048828125" type="line"/>
			<point x="1255.2657470703" y="1350.0048828125" type="line"/>
			<point x="774.5897216797" y="778.1007080078" type="line"/>
			<point x="1029.7467041016" y="128.9951171875" type="line"/>
			<point x="1252.5689697266" y="99.9951171875" type="line"/>
			<point x="1238.1588134766" y="0" type="line"/>
			<point x="589.2656860352" y="0" type="line"/>
			<point x="602.6758422852" y="99.9951171875" type="line"/>
			<point x="843.7592163086" y="128.9951171875" type="line"/>
			<point x="692.7686767578" y="574.5473022461" type="line"/>
			<point x="659.9740600586" y="678.5009155273" type="line"/>
			<point x="649.9740600586" y="678.5009155273" type="line"/>
			<point x="563.9284057617" y="560.561706543" type="line"/>
			<point x="257.7016601562" y="133.9951171875" type="line"/>
			<point x="466.3500366211" y="99.9951171875" type="line"/>
			<point x="451.9398803711" y="0" type="line"/>
		</contour>
	</outline>
	<anchor name="bottom" x="453" y="0"/>
	<anchor name="top" x="723" y="1500"/>
	<anchor name="cy_descender" x="1125" y="100"/>
	<anchor name="center" x="591" y="791"/>
</glyph>
<glyph name="Y" format="2">
	<unicode hex="0059"/>
	<advance width="1164"/>
	<outline>
		<contour>
			<point x="64.6434936523" y="0" type="line"/>
			<point x="80.0536499023" y="99.9951171875" type="line"/>
			<point x="328.8314819336" y="124.9951171875" type="line"/>
			<point x="431.1029052734" y="643.6510620117" type="line"/>
			<point x="336.6557617188" y="925.7337646484" type="line"/>
			<point x="183.5661621094" y="1346.0048828125" type="line"/>
			<point x="-13.6477661133" y="1387.0048828125" type="line"/>
			<point x="0.9124145508" y="1500" type="line"/>
			<point x="580.9092407227" y="1500" type="line"/>
			<point x="566.3490600586" y="1387.0048828125" type="line"/>
			<point x="358.4395751953" y="1355.0048828125" type="line"/>
			<point x="463.9708862305" y="1051.6669921875" type="line"/>
			<point x="609" y="783" type="line"/>
			<point x="619" y="783" type="line"/>
			<point x="824" y="1077" type="line"/>
			<point x="966.4086914062" y="1348.0048828125" type="line"/>
			<point x="774.6303100586" y="1387.0048828125" type="line"/>
			<point x="789.1904907227" y="1500" type="line"/>
			<point x="1368.0115356445" y="1500" type="line"/>
			<point x="1352.4513549805" y="1387.0048828125" type="line"/>
			<point x="1132.2374267578" y="1346.0048828125" type="line"/>
			<point x="903" y="1013" type="line"/>
			<point x="573.5332641602" y="622.1130371094" type="line"/>
			<point x="478.1777954102" y="124.9951171875" type="line"/>
			<point x="714.7817382812" y="99.9951171875" type="line"/>
			<point x="705.3715820312" y="0" type="line"/>
		</contour>
	</outline>
	<anchor name="bottom" x="443" y="0"/>
	<anchor name="top" x="731" y="1500"/>
	<anchor name="tonos" x="-13" y="1500"/>
	<anchor name="center" x="553" y="579"/>
</glyph>
<glyph name="Z" format="2">
	<unicode hex="005A"/>
	<advance width="1001"/>
	<outline>
		<contour>
			<point x="-108.0648193359" y="0" type="line"/>
			<point x="-128.9715576172" y="100.9307250977" type="line"/>
			<point x="414.1906738281" y="796.6281738281" type="line"/>
			<point x="839.7188110352" y="1370.73046875" type="line"/>
			<point x="830.7188110352" y="1385.73046875" type="line"/>
			<point x="289.3147583008" y="1385.73046875" type="line"/>
			<point x="173.1427001953" y="1102.0041503906" type="line"/>
			<point x="93.7423095703" y="1102.0041503906" type="line"/>
			<point x="173.3049316406" y="1500" type="line"/>
			<point x="1093.7676391602" y="1500" type="line"/>
			<point x="1079.7242431641" y="1389.2493286133" type="line"/>
			<point x="540.7467651367" y="728.6859130859" type="line"/>
			<point x="100.1825561523" y="136.9029541016" type="line"/>
			<point x="109.1825561523" y="117.9029541016" type="line"/>
			<point x="698.684753418" y="117.9029541016" type="line"/>
			<point x="862.0302124023" y="445.0516357422" type="line"/>
			<point x="959.4306030273" y="445.0516357422" type="line"/>
			<point x="805.831237793" y="0" type="line"/>
		</contour>
	</outline>
	<anchor name="bottom" x="383" y="0"/>
	<anchor name="top" x="643" y="1500"/>
	<anchor name="_liga" x="0" y="0"/>
</glyph>
<glyph name="b" format="2">
	<unicode hex="0062"/>
	<advance width="1163"/>
	<outline>
		<contour>
			<point x="85.9799804688" y="313" type="qcurve" smooth="yes"/>
			<point x="146.9799804688" y="633" type="line"/>
			<point x="305.6708374023" y="1449.5043945312" type="line"/>
			<point x="207.2756958008" y="1529.5043945312" type="line"/>
			<point x="227.0848388672" y="1609.5" type="line"/>
			<point x="359.8431396484" y="1665.5" type="line"/>
			<point x="457.8431396484" y="1556.5" type="line"/>
			<point x="270.3431396484" y="572" type="line"/>
			<point x="179.7410888672" y="116.434387207" type="line" smooth="yes"/>
			<point x="168.7410888672" y="61.704284668"/>
			<point x="282.0229492188" y="21.434387207"/>
			<point x="320.6311035156" y="22.434387207" type="qcurve" smooth="yes"/>
			<point x="488.8579711914" y="24.434387207"/>
			<point x="798.1402587891" y="400.0168457031"/>
			<point x="798.8576660156" y="616.5375366211" type="qcurve" smooth="yes"/>
			<point x="798.8576660156" y="732.1862792969"/>
			<point x="749.4392700195" y="845.3436889648"/>
			<point x="659.7331542969" y="844.3436889648" type="qcurve" smooth="yes"/>
			<point x="573.4731445312" y="843.3436889648"/>
			<point x="302.2834472656" y="705.4857788086"/>
			<point x="236.6393432617" y="640.8197021484" type="qcurve"/>
			<point x="194.9478759766" y="748.4673461914" type="line"/>
			<point x="294.0579223633" y="820.9443969727"/>
			<point x="655.982421875" y="1038.9995117188"/>
			<point x="741.7904052734" y="1038.9995117188" type="qcurve" smooth="yes"/>
			<point x="852.1711425781" y="1038.9995117188"/>
			<point x="971.9487915039" y="831.9995117188"/>
			<point x="971.5900878906" y="665.9995117188" type="qcurve" smooth="yes"/>
			<point x="970.8726806641" y="355.9995117188"/>
			<point x="528.1983032227" y="-31"/>
			<point x="365.4934082031" y="-31" type="qcurve" smooth="yes"/>
			<point x="165.9937133789" y="-31"/>
			<point x="59.9799804688" y="177"/>
		</contour>
	</outline>
	<anchor name="bottom" x="571" y="0"/>
	<anchor name="top" x="571" y="1533"/>
</glyph>
<glyph name="c" format="2">
	<unicode hex="0063"/>
	<advance width="1001"/>
	<outline>
		<contour>
			<point x="0.6595458984" y="499.9997558594" type="qcurve" smooth="yes"/>
			<point x="33.7547607422" y="737.9520263672"/>
			<point x="432.4157714844" y="1031.9995117188"/>
			<point x="639.9475097656" y="1031.9995117188" type="qcurve" smooth="yes"/>
			<point x="744.1402587891" y="1031.9995117188"/>
			<point x="890.8068237305" y="929.6967163086"/>
			<point x="898.8068237305" y="853.0288696289" type="qcurve" smooth="yes"/>
			<point x="904.8068237305" y="770.0755615234"/>
			<point x="819.3716430664" y="636.8834838867"/>
			<point x="740.0124511719" y="616.8834838867" type="qcurve"/>
			<point x="708.5306396484" y="642.8834838867" type="line"/>
			<point x="704.0068359375" y="858.533996582" type="line" smooth="yes"/>
			<point x="703.0068359375" y="884.533996582"/>
			<point x="649.7759399414" y="929.533996582"/>
			<point x="573.5491333008" y="929.533996582" type="qcurve" smooth="yes"/>
			<point x="415.3359375" y="929.533996582"/>
			<point x="190.2743530273" y="685.8702392578"/>
			<point x="169.9339599609" y="494.2378540039" type="qcurve" smooth="yes"/>
			<point x="147.0139160156" y="298.1452026367"/>
			<point x="233.9520874023" y="72.8790283203"/>
			<point x="368.6596069336" y="72.8790283203" type="qcurve" smooth="yes"/>
			<point x="515.9793701172" y="72.8790283203"/>
			<point x="726.0098876953" y="210.6073608398"/>
			<point x="775.8554077148" y="306.0191040039" type="qcurve"/>
			<point x="823.8992919922" y="252" type="line"/>
			<point x="826.8992919922" y="202" type="line"/>
			<point x="771.0161743164" y="83.475769043"/>
			<point x="514.2774047852" y="-31"/>
			<point x="326.3870849609" y="-31" type="qcurve" smooth="yes"/>
			<point x="121.0025634766" y="-31"/>
			<point x="-32.6737670898" y="262.333190918"/>
		</contour>
	</outline>
	<anchor name="bottom" x="343" y="0"/>
	<anchor name="top" x="600" y="1000"/>
</glyph>
<glyph name="d" format="2">
	<unicode hex="0064"/>
	<advance width="1273"/>
	<outline>
		<contour>
			<point x="6.6590352445" y="268.2379760742" type="qcurve" smooth="yes"/>
			<point x="-9.2561988687" y="567.1901855469"/>
			<point x="471.4087791586" y="976.2684936523"/>
			<point x="695.0847435141" y="985.9994506836" type="qcurve" smooth="yes"/>
			<point x="832.8662376547" y="985.9994506836" type="line"/>
			<point x="916.9585838461" y="1441.0043945312" type="line"/>
			<point x="798.7334861899" y="1524.0043945312" type="line"/>
			<point x="818.5426292563" y="1609" type="line"/>
			<point x="1013.1836204672" y="1671" type="line"/>
			<point x="1109.1836204672" y="1562" type="line"/>
			<point x="900.6836204672" y="469" type="line"/>
			<point x="843.5929832602" y="130.9956054688" type="line"/>
			<point x="1017.8879051352" y="120.9956054688" type="line"/>
			<point x="1021.0787620688" y="44" type="line"/>
			<point x="759.9053001547" y="-8" type="line"/>
			<point x="686.9053001547" y="73" type="line"/>
			<point x="675.9053001547" y="192" type="line"/>
			<point x="633.3672142172" y="111.9523925781"/>
			<point x="363.1826439047" y="-15"/>
			<point x="240.179653182" y="-15" type="qcurve" smooth="yes"/>
			<point x="120.5519066" y="-15"/>
			<point x="12.3003316312" y="129.5237426758"/>
		</contour>
		<contour>
			<point x="177.0966573148" y="286.9854125977" type="qcurve" smooth="yes"/>
			<point x="179.7466087484" y="185.193359375"/>
			<point x="243.2864036703" y="115.6402587891"/>
			<point x="300.1557884359" y="115.6402587891" type="qcurve" smooth="yes"/>
			<point x="435.533535018" y="115.6402587891"/>
			<point x="691.4954490805" y="329.479309082"/>
			<point x="735.5173607016" y="511.3979492188" type="qcurve" smooth="yes"/>
			<point x="819.2779808188" y="843.7086791992" type="line"/>
			<point x="798.2779808188" y="861.7086791992"/>
			<point x="734.0024681234" y="899.7086791992"/>
			<point x="649.8946800375" y="899.7086791992" type="qcurve" smooth="yes"/>
			<point x="455.4342918539" y="899.7086791992"/>
			<point x="170.8140645413" y="505.7126464844"/>
		</contour>
	</outline>
	<anchor name="bottom" x="604" y="0"/>
	<anchor name="center" x="876" y="1202"/>
	<anchor name="top" x="704" y="1534"/>
	<anchor name="topright" x="1076" y="1000"/>
	<anchor name="liga" x="1067" y="0"/>
</glyph>
<glyph name="g" format="2">
	<unicode hex="0067"/>
	<advance width="1110"/>
	<outline>
		<contour>
			<point x="10.897277832" y="276.6666259766" type="qcurve" smooth="yes"/>
			<point x="0.6146850586" y="579.2377929688"/>
			<point x="284.0908203125" y="1013.4279785156"/>
			<point x="467.4102783203" y="1013.4279785156" type="qcurve" smooth="yes"/>
			<point x="623.2362060547" y="1013.4279785156"/>
			<point x="791.8435668945" y="943.4279785156"/>
			<point x="821.4630126953" y="921.4279785156" type="qcurve"/>
			<point x="671.854309082" y="1011.4279785156" type="line"/>
			<point x="823.854309082" y="1011.4279785156" type="line"/>
			<point x="912.0924072266" y="812.4279785156" type="line"/>
			<point x="849.3782348633" y="586" type="line" smooth="yes"/>
			<point x="796.9020385742" y="387.7619018555"/>
			<point x="750.2225952148" y="172.0055541992"/>
			<point x="715.1470336914" y="31.8439941406" type="qcurve" smooth="yes"/>
			<point x="642.7944946289" y="-266.8175048828"/>
			<point x="405.2388916016" y="-516.4902954102"/>
			<point x="280.8556518555" y="-506.4902954102" type="qcurve"/>
			<point x="205.424621582" y="-461.4902954102" type="line"/>
			<point x="201.0141601562" y="-352.7047119141" type="line"/>
			<point x="320.0246582031" y="-355.7047119141" type="line" smooth="yes"/>
			<point x="436.4344482422" y="-356.7993164062"/>
			<point x="546.0786132812" y="-205.8016967773"/>
			<point x="602.5176391602" y="27.8439941406" type="qcurve" smooth="yes"/>
			<point x="637.0314331055" y="172.6412963867" type="line"/>
			<point x="590.2593994141" y="114.8694458008"/>
			<point x="354.667175293" y="-16"/>
			<point x="279.4910888672" y="-16" type="qcurve" smooth="yes"/>
			<point x="164.5571289062" y="-16"/>
			<point x="15.5385742188" y="134.194519043"/>
		</contour>
		<contour>
			<point x="137.905456543" y="297.6354980469" type="qcurve" smooth="yes"/>
			<point x="140.5467529297" y="190.4309082031"/>
			<point x="221.9455566406" y="119.1315917969"/>
			<point x="277.0848999023" y="119.1315917969" type="qcurve" smooth="yes"/>
			<point x="411.3865356445" y="119.1315917969"/>
			<point x="647.9398193359" y="331.6309814453"/>
			<point x="693.6536865234" y="515.6193847656" type="qcurve" smooth="yes"/>
			<point x="779.700012207" y="843.6770019531" type="line"/>
			<point x="759.4174194336" y="858.6770019531"/>
			<point x="676.4660644531" y="891.6770019531"/>
			<point x="566.2935180664" y="891.6770019531" type="qcurve" smooth="yes"/>
			<point x="421.7174682617" y="891.6770019531"/>
			<point x="131.2641601562" y="495.8869018555"/>
		</contour>
	</outline>
	<anchor name="bottom" x="324" y="-416"/>
	<anchor name="top" x="603" y="1000"/>
</glyph>
<glyph name="m" format="2">
	<unicode hex="006D"/>
	<advance width="1785"/>
	<outline>
		<contour>
			<point x="60.0048828125" y="-2" type="line"/>
			<point x="17.0048828125" y="145" type="line"/>
			<point x="124.4810791016" y="495.2380981445" type="line"/>
			<point x="183.4984130859" y="805.00390625" type="line"/>
			<point x="39.943359375" y="782.00390625" type="line"/>
			<point x="39.7525024414" y="879.9995117188" type="line"/>
			<point x="58.0527954102" y="1007.9995117188" type="line"/>
			<point x="291.0527954102" y="1007.9995117188" type="line"/>
			<point x="314.3448486328" y="745.1677246094" type="line"/>
			<point x="289.3862304688" y="636.2380981445" type="line"/>
			<point x="192.9100341797" y="194" type="line"/>
			<point x="277.9100341797" y="18" type="line"/>
		</contour>
		<contour>
			<point x="723.221862793" y="-21" type="line"/>
			<point x="624.221862793" y="133" type="line"/>
			<point x="748.2521362305" y="680.9924316406" type="line" smooth="yes"/>
			<point x="769.9600830078" y="778.1892700195"/>
			<point x="708.924987793" y="855.9924316406"/>
			<point x="647.9879150391" y="855.9924316406" type="qcurve" smooth="yes"/>
			<point x="573.431640625" y="855.9924316406"/>
			<point x="348.16015625" y="772.8685913086"/>
			<point x="221.6931152344" y="633.2032470703" type="qcurve"/>
			<point x="215.6930541992" y="713.2800292969" type="line"/>
			<point x="291.2407836914" y="831.7430419922"/>
			<point x="560.6975097656" y="1018.9995117188"/>
			<point x="700.8408813477" y="1018.9995117188" type="qcurve" smooth="yes"/>
			<point x="810.528503418" y="1018.9995117188"/>
			<point x="917.696472168" y="784.278137207"/>
			<point x="875.8165283203" y="569.9995117188" type="qcurve" smooth="yes"/>
			<point x="798.6737670898" y="197" type="line"/>
			<point x="855.6737670898" y="26" type="line"/>
		</contour>
		<contour>
			<point x="1316.7822875977" y="-16" type="line"/>
			<point x="1223.7822875977" y="124" type="line"/>
			<point x="1345.8125610352" y="680.9924316406" type="line" smooth="yes"/>
			<point x="1366.6443481445" y="773.8084716797"/>
			<point x="1305.193359375" y="856.9924316406"/>
			<point x="1247.6721801758" y="856.9924316406" type="qcurve" smooth="yes"/>
			<point x="1168.2397460938" y="856.9924316406"/>
			<point x="943.8000488281" y="764.8685913086"/>
			<point x="816.7278442383" y="624.0209960938" type="qcurve"/>
			<point x="805.8212890625" y="709.8220214844" type="line"/>
			<point x="884.1143188477" y="813.5655517578"/>
			<point x="1173.6783447266" y="1018.9995117188"/>
			<point x="1292.3265991211" y="1018.9995117188" type="qcurve" smooth="yes"/>
			<point x="1398.5095825195" y="1018.9995117188"/>
			<point x="1511.9255981445" y="794.8549194336"/>
			<point x="1470.1059570312" y="569.9995117188" type="qcurve" smooth="yes"/>
			<point x="1385.3522949219" y="132.9956054688" type="line"/>
			<point x="1540.1674804688" y="137.9956054688" type="line"/>
			<point x="1539.3583374023" y="50" type="line"/>
		</contour>
	</outline>
	<anchor name="bottom" x="958" y="0"/>
	<anchor name="top" x="958" y="1000"/>
	<anchor name="cy_descender" x="1572" y="134"/>
</glyph>
<glyph name="n" format="2">
	<unicode hex="006E"/>
	<advance width="1167"/>
	<outline>
		<contour>
			<point x="62.1076660156" y="-18.3549804688" type="line"/>
			<point x="17.4721679688" y="73.7390136719" type="line"/>
			<point x="124.0048828125" y="495" type="line"/>
			<point x="188.6653442383" y="826.2653808594" type="line"/>
			<point x="44.2702026367" y="803.2653808594" type="line"/>
			<point x="43.8412475586" y="901.2609863281" type="line"/>
			<point x="237.9575805664" y="1005.0789794922" type="line"/>
			<point x="303.3190307617" y="1005.0789794922" type="line"/>
			<point x="337.7675170898" y="784.8869628906" type="line"/>
			<point x="301.1762695312" y="636" type="line"/>
			<point x="198.2838134766" y="122.358215332" type="line"/>
			<point x="256.064453125" y="12.3622436523" type="line"/>
		</contour>
		<contour>
			<point x="717.4417114258" y="-23.7874145508" type="line"/>
			<point x="650.0255737305" y="88.4675292969" type="line"/>
			<point x="778.9816894531" y="693.580078125" type="line" smooth="yes"/>
			<point x="799.0541381836" y="783.1689453125"/>
			<point x="766.9791870117" y="866.580078125"/>
			<point x="656.2035522461" y="866.580078125" type="qcurve" smooth="yes"/>
			<point x="559.8062133789" y="866.580078125"/>
			<point x="311.6906738281" y="693.8350219727"/>
			<point x="274.9538574219" y="634.0521240234" type="qcurve"/>
			<point x="225.744140625" y="684.8924560547" type="line"/>
			<point x="335.1726074219" y="842.0022583008"/>
			<point x="644.1113891602" y="1013.7991943359"/>
			<point x="783.6122436523" y="1013.7991943359" type="qcurve" smooth="yes"/>
			<point x="851.4194335938" y="1013.7991943359"/>
			<point x="969.8664550781" y="903.6581420898"/>
			<point x="939.0366210938" y="746.1642456055" type="qcurve" smooth="yes"/>
			<point x="818.6370849609" y="132.9956054688" type="line"/>
			<point x="973.0322265625" y="137.9956054688" type="line"/>
			<point x="972.2230834961" y="50" type="line"/>
		</contour>
	</outline>
	<anchor name="bottom" x="522" y="0"/>
	<anchor name="top" x="602" y="1000"/>
	<anchor name="liga" x="1173" y="0"/>
</glyph>
<glyph name="q" format="2">
	<unicode hex="0071"/>
	<advance width="1135"/>
	<outline>
		<contour>
			<point x="12.7276611328" y="266.2380371094" type="qcurve" smooth="yes"/>
			<point x="2.8037719727" y="583.9044799805"/>
			<point x="302.0492553711" y="1008.4279785156"/>
			<point x="516.5335083008" y="1008.4279785156" type="qcurve" smooth="yes"/>
			<point x="652.8703613281" y="1008.4279785156"/>
			<point x="809.5440673828" y="939.4279785156"/>
			<point x="839.5983276367" y="917.4279785156" type="qcurve"/>
			<point x="654.8853759766" y="1002.4279785156" type="line"/>
			<point x="826.8853759766" y="1002.4279785156" type="line"/>
			<point x="920.8853759766" y="809.4279785156" type="line"/>
			<point x="839.4093017578" y="501" type="line"/>
			<point x="641.6831054688" y="-344.1715698242" type="line"/>
			<point x="762.7584228516" y="-399.1715698242" type="line"/>
			<point x="733.3030395508" y="-470.167175293" type="line"/>
			<point x="600.5447387695" y="-488.167175293" type="line"/>
			<point x="508.5447387695" y="-393.167175293" type="line"/>
			<point x="642.0461425781" y="155" type="line"/>
			<point x="625.0461425781" y="158" type="line"/>
			<point x="528.9136962891" y="70.5655517578"/>
			<point x="341.4204101562" y="-10"/>
			<point x="274.8532104492" y="-10" type="qcurve" smooth="yes"/>
			<point x="164.0797119141" y="-10"/>
			<point x="16.3689575195" y="130.0667114258"/>
		</contour>
		<contour>
			<point x="151.2767333984" y="312.7311401367" type="qcurve" smooth="yes"/>
			<point x="150.9180297852" y="202.0816650391"/>
			<point x="213.4254150391" y="124.7665405273"/>
			<point x="255.1117553711" y="124.7665405273" type="qcurve" smooth="yes"/>
			<point x="400.1110229492" y="124.7665405273"/>
			<point x="676.4875488281" y="333.1737060547"/>
			<point x="715.3160400391" y="517.3494873047" type="qcurve" smooth="yes"/>
			<point x="792.2672119141" y="827.6770019531" type="line"/>
			<point x="776.6259155273" y="842.6770019531"/>
			<point x="722.9868774414" y="889.6770019531"/>
			<point x="646.6831665039" y="889.6770019531" type="qcurve" smooth="yes"/>
			<point x="427.5833740234" y="889.6770019531"/>
			<point x="151.994140625" y="512.3473510742"/>
		</contour>
	</outline>
	<anchor name="bottom" x="594" y="0"/>
	<anchor name="top" x="594" y="1000"/>
</glyph>
<glyph name="s" format="2">
	<unicode hex="0073"/>
	<advance width="987"/>
	<outline>
		<contour>
			<point x="-54.5324707031" y="218" type="qcurve" smooth="yes"/>
			<point x="-55.5324707031" y="303"/>
			<point x="41.6640625" y="402"/>
			<point x="114.8653564453" y="402" type="qcurve" smooth="yes"/>
			<point x="184.8653564453" y="402" type="line"/>
			<point x="188.8653564453" y="190.1938476562" type="line" smooth="yes"/>
			<point x="189.8653564453" y="139.5588989258"/>
			<point x="179.8974609375" y="99.561340332"/>
			<point x="382.8999633789" y="99.561340332" type="qcurve" smooth="yes"/>
			<point x="509.3912963867" y="99.561340332"/>
			<point x="682.7020874023" y="184.3790283203"/>
			<point x="683.7020874023" y="263.2573242188" type="qcurve" smooth="yes"/>
			<point x="686.7020874023" y="349.2524414062"/>
			<point x="679.4262695312" y="397.9266967773"/>
			<point x="443.6209716797" y="453.8294677734" type="qcurve" smooth="yes"/>
			<point x="218.491394043" y="504.7354125977"/>
			<point x="73.4888916016" y="639.5841064453"/>
			<point x="96.306640625" y="788.6793212891" type="qcurve" smooth="yes"/>
			<point x="122.1243896484" y="881.1424560547"/>
			<point x="380.6533813477" y="1027.5991210938"/>
			<point x="588.4923706055" y="1027.5991210938" type="qcurve" smooth="yes"/>
			<point x="734.3584594727" y="1027.5991210938"/>
			<point x="887.4797363281" y="897.9995117188"/>
			<point x="888.4797363281" y="801.9995117188" type="qcurve" smooth="yes"/>
			<point x="889.4797363281" y="733.7614135742"/>
			<point x="826.4654541016" y="658.9995117188"/>
			<point x="785.7966308594" y="658.9995117188" type="qcurve" smooth="yes"/>
			<point x="689.7966308594" y="658.9995117188" type="line"/>
			<point x="687.7966308594" y="772.2520751953" type="line" smooth="yes"/>
			<point x="686.7966308594" y="825.2731323242"/>
			<point x="629.2631225586" y="900.7080688477"/>
			<point x="496.6159057617" y="900.7080688477" type="qcurve" smooth="yes"/>
			<point x="370.6497802734" y="900.7080688477"/>
			<point x="239.8884277344" y="840.5306396484"/>
			<point x="239.8884277344" y="767.4131469727" type="qcurve" smooth="yes"/>
			<point x="239.8884277344" y="694.8607177734"/>
			<point x="326.2523193359" y="653.089050293"/>
			<point x="504.2584228516" y="608.3898925781" type="qcurve" smooth="yes"/>
			<point x="678.5408325195" y="560.3505249023"/>
			<point x="844.6340942383" y="412.9004516602"/>
			<point x="834.6340942383" y="264.2877807617" type="qcurve"/>
			<point x="824.3934326172" y="146.7614135742"/>
			<point x="459.0016479492" y="-25.599609375"/>
			<point x="278.8690795898" y="-25.599609375" type="qcurve" smooth="yes"/>
			<point x="108.5146484375" y="-25.599609375"/>
			<point x="-52.5324707031" y="101"/>
		</contour>
	</outline>
	<anchor name="bottom" x="282" y="0"/>
	<anchor name="top" x="446" y="1000"/>
</glyph>
<glyph name="t" format="2">
	<unicode hex="0074"/>
	<advance width="626"/>
	<outline>
		<contour>
			<point x="114.0216674805" y="-15" type="line"/>
			<point x="30.0216674805" y="107" type="line"/>
			<point x="122.0216674805" y="512" type="line"/>
			<point x="179.842590332" y="830.3107910156" type="line"/>
			<point x="-17.1388549805" y="842.3107910156" type="line"/>
			<point x="-20.4710083008" y="895.9995117188" type="line"/>
			<point x="168.279296875" y="928.9995117188"/>
			<point x="343.8572998047" y="1185.6881713867"/>
			<point x="284.5499267578" y="1216.9995117188" type="qcurve"/>
			<point x="309.4907836914" y="1216.9995117188" type="line"/>
			<point x="360.4907836914" y="1139.9995117188" type="line"/>
			<point x="249.5861206055" y="524" type="line"/>
			<point x="191.6553955078" y="161.9956054688" type="line"/>
			<point x="346.6467285156" y="154.9956054688" type="line"/>
			<point x="341.2266845703" y="64.1599121094" type="line"/>
		</contour>
		<contour>
			<point x="583.6235351562" y="849.3107910156" type="line"/>
			<point x="619.9263305664" y="939.9995117188" type="line"/>
			<point x="568.2947387695" y="939.9995117188" type="line"/>
			<point x="566.9919433594" y="840.3107910156" type="line"/>
		</contour>
	</outline>
	<anchor name="bottom" x="149" y="0"/>
	<anchor name="center" x="262" y="622"/>
	<anchor name="top" x="322" y="1179"/>
	<anchor name="topright" x="600" y="920"/>
</glyph>
<glyph name="v" format="2">
	<unicode hex="0076"/>
	<advance width="947"/>
	<outline>
		<contour>
			<point x="195.7298583984" y="-4.1997680664" type="line"/>
			<point x="146.0432128906" y="515.3830566406" type="line"/>
			<point x="111.1286010742" y="801.2420043945" type="line"/>
			<point x="3.7006835938" y="821.2420043945" type="line"/>
			<point x="2.6505737305" y="911.2376098633" type="line"/>
			<point x="185.6613769531" y="1011.2376098633" type="line"/>
			<point x="265.6180419922" y="1011.2376098633" type="line"/>
			<point x="312.7617797852" y="454.9506225586" type="line"/>
			<point x="329.7830810547" y="248.7543334961" type="line"/>
			<point x="331.9188232422" y="159.7965698242" type="line"/>
			<point x="346.8736572266" y="159.7965698242" type="line"/>
			<point x="430.2607421875" y="267.7559204102" type="line"/>
			<point x="628.0768432617" y="497.0684204102"/>
			<point x="688.727722168" y="628.0260009766"/>
			<point x="692.727722168" y="693.8088378906" type="qcurve" smooth="yes"/>
			<point x="696.727722168" y="779.5703125"/>
			<point x="608.5919189453" y="880.1685791016"/>
			<point x="608.5919189453" y="935.0893554688" type="qcurve" smooth="yes"/>
			<point x="608.5919189453" y="968.2300415039"/>
			<point x="665.8837280273" y="1042.4051513672"/>
			<point x="730.9644775391" y="1042.4051513672" type="qcurve" smooth="yes"/>
			<point x="778.9677124023" y="1042.4051513672"/>
			<point x="854.2078857422" y="950.5514526367"/>
			<point x="848.2078857422" y="812.5972290039" type="qcurve" smooth="yes"/>
			<point x="839.2078857422" y="707.1577758789"/>
			<point x="567.1657104492" y="270.8043823242"/>
			<point x="343.1282348633" y="7.8002319336" type="qcurve"/>
		</contour>
	</outline>
	<anchor name="bottom" x="513" y="0"/>
	<anchor name="top" x="513" y="1000"/>
</glyph>
<glyph name="w" format="2">
	<unicode hex="0077"/>
	<advance width="1428"/>
	<outline>
		<contour>
			<point x="185.9317626953" y="-8" type="line"/>
			<point x="135.1526489258" y="518.6864013672" type="line"/>
			<point x="104.1286010742" y="834.2420043945" type="line"/>
			<point x="3.1748657227" y="831.2420043945" type="line"/>
			<point x="-3.0159912109" y="921.2376098633" type="line"/>
			<point x="56.4479980469" y="1011.2376098633" type="line"/>
			<point x="261.4028320312" y="1011.2376098633" type="line"/>
			<point x="286.3129882812" y="540.6544799805" type="line"/>
			<point x="311.9002685547" y="285.7307128906" type="line"/>
			<point x="312.6842041016" y="179.9642333984" type="line"/>
			<point x="322.6842041016" y="179.9642333984" type="line"/>
			<point x="403.8115844727" y="301.3344116211" type="line"/>
			<point x="465.5540771484" y="388.5189208984"/>
			<point x="573.513671875" y="522.9526977539"/>
			<point x="620.1205444336" y="606.7303466797" type="qcurve"/>
			<point x="587.5023803711" y="835.382019043" type="line"/>
			<point x="556.7409667969" y="832.1785888672" type="line"/>
			<point x="550.6179199219" y="922.3776245117" type="line"/>
			<point x="538.2081298828" y="1010.7421264648" type="line"/>
			<point x="741.3903808594" y="1010.7421264648" type="line"/>
			<point x="783.9403076172" y="492.661315918" type="line"/>
			<point x="806.9475097656" y="284.4658203125" type="line"/>
			<point x="808.7211914062" y="172.5170898438" type="line"/>
			<point x="818.7211914062" y="172.5170898438" type="line"/>
			<point x="916.9447021484" y="309.8120117188" type="line"/>
			<point x="1091.7719116211" y="527.3684082031"/>
			<point x="1179.0315551758" y="680.2593383789"/>
			<point x="1171.3499145508" y="732.5698852539" type="qcurve" smooth="yes"/>
			<point x="1165.4935302734" y="783.5838012695"/>
			<point x="1060.6662597656" y="880.3918457031"/>
			<point x="1061.0307617188" y="939.4895629883" type="qcurve" smooth="yes"/>
			<point x="1061.3952636719" y="986.6813354492"/>
			<point x="1141.4935302734" y="1053.2376098633"/>
			<point x="1206.2368164062" y="1053.2376098633" type="qcurve" smooth="yes"/>
			<point x="1277.9753417969" y="999.4582519531"/>
			<point x="1387.9658203125" y="944.6021118164"/>
			<point x="1381.9658203125" y="830.9666137695" type="qcurve" smooth="yes"/>
			<point x="1372.9658203125" y="704.784362793"/>
			<point x="1110.0010986328" y="360.5793457031"/>
			<point x="820.28515625" y="4" type="qcurve"/>
			<point x="675.78515625" y="-8" type="line"/>
			<point x="643.0766601562" y="347.4985351562" type="line"/>
			<point x="645.4539794922" y="464.6173095703" type="line"/>
			<point x="635.4539794922" y="464.6173095703" type="line"/>
			<point x="553.7673950195" y="329.5604248047" type="line"/>
			<point x="542.1922607422" y="280.2190551758"/>
			<point x="415.9063110352" y="135.3413696289"/>
			<point x="315.3311767578" y="4" type="qcurve"/>
		</contour>
	</outline>
	<anchor name="bottom" x="787" y="0"/>
	<anchor name="top" x="717" y="1000"/>
</glyph>
<glyph name="x" format="2">
	<unicode hex="0078"/>
	<advance width="960"/>
	<outline>
		<contour>
			<point x="129.8771972656" y="-8.5997924805" type="qcurve"/>
			<point x="-75.4208984375" y="50.4002075195" type="line"/>
			<point x="-50.4208984375" y="181.4002075195" type="line"/>
			<point x="123.8771972656" y="179.4002075195" type="line" smooth="yes"/>
			<point x="196.2581176758" y="176.8869628906"/>
			<point x="313.0357055664" y="247.9764404297"/>
			<point x="419.0049438477" y="315.7883911133" type="qcurve" smooth="yes"/>
			<point x="496.5811157227" y="362.8988647461"/>
			<point x="477.9524536133" y="356.7582397461"/>
			<point x="502.4602661133" y="373.1840209961" type="qcurve"/>
			<point x="322.9583129883" y="851.5277099609" type="line"/>
			<point x="150.7658081055" y="832.4680175781" type="line"/>
			<point x="145.9448852539" y="930.5233154297" type="line"/>
			<point x="279.3529663086" y="1022.5233154297" type="line"/>
			<point x="439.3529663086" y="982.5233154297" type="line"/>
			<point x="482.0742797852" y="794.640625" type="line"/>
			<point x="493.9227905273" y="705.3982543945" type="line"/>
			<point x="503.9227905273" y="705.3982543945" type="line"/>
			<point x="530.586730957" y="749.9711914062" type="line" smooth="yes"/>
			<point x="548.0316772461" y="775.9537963867"/>
			<point x="634.5246582031" y="860.6411743164"/>
			<point x="673.3096923828" y="888.1633300781" type="qcurve" smooth="yes"/>
			<point x="734.3892211914" y="926.6142578125"/>
			<point x="887.4786987305" y="1024.1231079102"/>
			<point x="958.8257446289" y="1024.1231079102" type="qcurve" smooth="yes"/>
			<point x="1008.3361816406" y="1024.1231079102"/>
			<point x="1048.1722412109" y="952.1231079102"/>
			<point x="1046.1722412109" y="897.1231079102" type="qcurve" smooth="yes"/>
			<point x="1043.1722412109" y="835.1231079102"/>
			<point x="950.1632080078" y="722.1231079102"/>
			<point x="911.1632080078" y="708.1231079102" type="qcurve"/>
			<point x="869.1632080078" y="720.1231079102" type="line"/>
			<point x="869.6677246094" y="752.1050415039" type="line" smooth="yes"/>
			<point x="870.1722412109" y="767.1231079102"/>
			<point x="850.9809570312" y="792.1231079102"/>
			<point x="821.591796875" y="792.1231079102" type="qcurve" smooth="yes"/>
			<point x="769.8775024414" y="792.1231079102"/>
			<point x="658.0875244141" y="744.9083862305"/>
			<point x="572.1864624023" y="688.2869262695" type="qcurve" smooth="yes"/>
			<point x="514.0087280273" y="648.1223754883"/>
			<point x="529.3803710938" y="653.8944702148"/>
			<point x="493.3131103516" y="621.6565551758" type="qcurve"/>
			<point x="674.8052978516" y="130.9956054688" type="line"/>
			<point x="793.0479125977" y="130.9956054688" type="line"/>
			<point x="801.2387695312" y="49" type="line"/>
			<point x="690.3894042969" y="-5.5496826172" type="line"/>
			<point x="543.3894042969" y="33.4503173828" type="line"/>
			<point x="505.7918701172" y="213.5299072266" type="line"/>
			<point x="491.7052612305" y="294.5341796875" type="line"/>
			<point x="481.7052612305" y="294.5341796875" type="line"/>
			<point x="443.4822998047" y="244.3014526367" type="line"/>
			<point x="420.8876342773" y="226.0094604492"/>
			<point x="418.05078125" y="203.2694702148"/>
			<point x="376.9483642578" y="168.0841674805" type="qcurve" smooth="yes"/>
			<point x="274.4049682617" y="92.8711547852"/>
			<point x="166.3569335938" y="-6.0444335938"/>
		</contour>
	</outline>
	<anchor name="bottom" x="522" y="0"/>
	<anchor name="top" x="522" y="1000"/>
	<anchor name="cy_descender" x="832" y="134"/>
	<anchor name="center" x="432" y="502"/>
</glyph>
<glyph name="y" format="2">
	<unicode hex="0079"/>
	<advance width="914"/>
	<outline>
		<contour>
			<point x="-383.9462280273" y="-449.7576904297" type="line"/>
			<point x="-359.9462280273" y="-280.7576904297" type="line"/>
			<point x="-177.026184082" y="-280.7576904297" type="line" smooth="yes"/>
			<point x="-10.2777709961" y="-280.7576904297"/>
			<point x="194.962097168" y="-142.358215332"/>
			<point x="289.3360595703" y="-11.0451660156" type="qcurve" smooth="yes"/>
			<point x="305.5469970703" y="14" type="line"/>
			<point x="184.6578369141" y="14" type="line"/>
			<point x="197.6169433594" y="79"/>
			<point x="137.5037841797" y="637.2420043945"/>
			<point x="104.818359375" y="835.2420043945" type="qcurve"/>
			<point x="-2.9658813477" y="830.2420043945" type="line"/>
			<point x="-1.0159912109" y="921.2376098633" type="line"/>
			<point x="160.380859375" y="1010.2376098633" type="line"/>
			<point x="235.6345214844" y="1010.2376098633" type="line"/>
			<point x="278.6345214844" y="896.2376098633" type="line"/>
			<point x="327.7616577148" y="183.9096679688" type="line"/>
			<point x="329.7603149414" y="64.283203125" type="line"/>
			<point x="339.7603149414" y="64.283203125" type="line"/>
			<point x="564.3628540039" y="297.9412841797" type="line" smooth="yes"/>
			<point x="709.1187133789" y="490.37890625"/>
			<point x="710.2325439453" y="687.4444580078"/>
			<point x="689.0595703125" y="787.86328125" type="qcurve" smooth="yes"/>
			<point x="676.2827758789" y="858.8526611328"/>
			<point x="636.4253540039" y="896.3728637695"/>
			<point x="636.4253540039" y="941.3079223633" type="qcurve" smooth="yes"/>
			<point x="636.4253540039" y="989.1351928711"/>
			<point x="707.3461303711" y="1054.7897338867"/>
			<point x="773.1829223633" y="1054.7897338867" type="qcurve" smooth="yes"/>
			<point x="844.1924438477" y="1054.7897338867"/>
			<point x="903.3984985352" y="965.326965332"/>
			<point x="903.3984985352" y="879.9338989258" type="qcurve" smooth="yes"/>
			<point x="903.3984985352" y="748.5659790039"/>
			<point x="608.7213134766" y="233.9771728516"/>
			<point x="451.2038574219" y="14.5135498047" type="qcurve" smooth="yes"/>
			<point x="402.1419677734" y="-45" type="line" smooth="yes"/>
			<point x="249.0958251953" y="-238.7086791992"/>
			<point x="16.6455078125" y="-492.7576904297"/>
			<point x="-217.0158081055" y="-492.7576904297" type="qcurve"/>
		</contour>
	</outline>
	<anchor name="bottom" x="782" y="0"/>
	<anchor name="top" x="504" y="1000"/>
</glyph>
<glyph name="idotless" format="2">
	<unicode hex="0131"/>
	<advance width="613"/>
	<outline>
		<contour>
			<point x="83.3527832031" y="-18" type="line"/>
			<point x="22.3527832031" y="118" type="line"/>
			<point x="123.4479980469" y="495.0950927734" type="line"/>
			<point x="178.9244995117" y="809.5277099609" type="line"/>
			<point x="37.7393798828" y="788.5277099609" type="line"/>
			<point x="36.3385009766" y="883.5233154297" type="line"/>
			<point x="88.1807861328" y="1009.5233154297" type="line"/>
			<point x="323.1807861328" y="1009.5233154297" type="line"/>
			<point x="393.1807861328" y="893.5233154297" type="line"/>
			<point x="328.1807861328" y="707.5233154297" type="line"/>
			<point x="277.8951416016" y="490.0950927734" type="line"/>
			<point x="201.0291137695" y="147.9956054688" type="line"/>
			<point x="363.2142333984" y="137.9956054688" type="line"/>
			<point x="362.1950683594" y="53" type="line"/>
		</contour>
	</outline>
	<anchor name="bottom" x="180" y="0"/>
	<anchor name="top" x="320" y="1000"/>
	<anchor name="ogonek" x="180" y="0"/>
	<anchor name="yu_dash" x="239" y="498"/>
	<anchor name="liga" x="618" y="0"/>
</glyph>
<glyph name="jdotless" format="2">
	<unicode hex="0237"/>
	<advance width="491"/>
	<outline>
		<contour>
			<point x="165.5732421875" y="809.00390625" type="qcurve"/>
			<point x="55.8582763672" y="789.00390625" type="line"/>
			<point x="52.6674194336" y="880.9995117188" type="line"/>
			<point x="100.4257202148" y="1009.9995117188" type="line"/>
			<point x="330.4257202148" y="1009.9995117188" type="line"/>
			<point x="384.4257202148" y="894.9995117188" type="line"/>
			<point x="345.4257202148" y="775.9995117188" type="line"/>
			<point x="187.4616088867" y="112.6127929688" type="line"/>
			<point x="136.6803588867" y="-203.6651611328"/>
			<point x="-13.7019042969" y="-506.3287353516"/>
			<point x="-251.7334594727" y="-506.3287353516" type="qcurve"/>
			<point x="-376.3959960938" y="-467.3287353516" type="line"/>
			<point x="-359.0068969727" y="-328.7627563477" type="line"/>
			<point x="-203.4248046875" y="-330.7627563477" type="line" smooth="yes"/>
			<point x="-109.7003173828" y="-331.7627563477"/>
			<point x="-17.2656860352" y="-215.7133178711"/>
			<point x="41.098449707" y="85.6127929688" type="qcurve" smooth="yes"/>
			<point x="74.7947998047" y="250.305847168"/>
			<point x="143.2033081055" y="648.373840332"/>
		</contour>
	</outline>
	<anchor name="bottom" x="88" y="-436"/>
	<anchor name="top" x="320" y="1000"/>
	<anchor name="_liga" x="0" y="0"/>
</glyph>
